<svg width="24" height="24" viewBox="0 0 24 24" fill="none" xmlns="http://www.w3.org/2000/svg">
    <path
        d="M11.47 18.6L6.97 21.33C6.74553 21.4679 6.47573 21.5116 6.21921 21.4517C5.96269 21.3917 5.74018 21.233 5.6 21.01C5.52976 20.898 5.48292 20.7729 5.4623 20.6423C5.44167 20.5117 5.4477 20.3782 5.48 20.25L6.18 17.52C6.43 16.54 7.11 15.72 8.03 15.28L12.94 12.94C13.0498 12.888 13.1345 12.7946 13.1758 12.6804C13.217 12.5661 13.2113 12.4401 13.16 12.33C13.1157 12.2392 13.0427 12.1655 12.9523 12.1203C12.862 12.0751 12.7592 12.061 12.66 12.08L7.2 13.02C6.65014 13.1144 6.08634 13.0882 5.54762 12.9431C5.0089 12.7981 4.50813 12.5377 4.08 12.18L2.36 10.75C2.20262 10.6265 2.0868 10.4579 2.02808 10.2666C1.96936 10.0754 1.97057 9.8708 2.03153 9.68028C2.0925 9.48977 2.2103 9.32247 2.36913 9.20086C2.52795 9.07926 2.72018 9.00916 2.92 8.99999L8.19 8.58999C8.37244 8.57494 8.54724 8.5101 8.69536 8.40253C8.84348 8.29497 8.95923 8.14882 9.03 7.97999L11.07 3.09999C11.1482 2.92254 11.2764 2.77167 11.4389 2.66576C11.6013 2.55984 11.7911 2.50345 11.985 2.50345C12.1789 2.50345 12.3687 2.55984 12.5311 2.66576C12.6936 2.77167 12.8218 2.92254 12.9 3.09999L14.94 7.97999C15.0122 8.14694 15.1286 8.29104 15.2766 8.39676C15.4246 8.50249 15.5987 8.56584 15.78 8.57999L21.08 8.99999C21.2734 9.01639 21.4577 9.08928 21.61 9.20958C21.7623 9.32989 21.8759 9.49231 21.9366 9.67665C21.9974 9.86099 22.0026 10.0591 21.9516 10.2464C21.9007 10.4337 21.7958 10.6018 21.65 10.73L17.61 14.16C17.4691 14.2763 17.3635 14.4298 17.3052 14.6029C17.2469 14.7761 17.2382 14.9621 17.28 15.14L18.53 20.27C18.5612 20.3974 18.5667 20.5298 18.5462 20.6593C18.5258 20.7889 18.4798 20.9131 18.411 21.0248C18.3421 21.1364 18.2518 21.2333 18.1452 21.3097C18.0386 21.3861 17.9178 21.4406 17.79 21.47C17.5326 21.5272 17.2631 21.4805 17.04 21.34L12.5 18.6C12.3445 18.5066 12.1664 18.4572 11.985 18.4572C11.8036 18.4572 11.6255 18.5066 11.47 18.6Z"
        fill="currentColor"
    />
</svg>
